<svg xmlns="http://www.w3.org/2000/svg" viewBox="0 0 64 64" fill="none" role="img" aria-label="Phantom">
  <defs>
    <linearGradient id="ph" x1="10" y1="8" x2="54" y2="56" gradientUnits="userSpaceOnUse">
      <stop stop-color="#534BB1"/>
      <stop offset="0.5" stop-color="#551BF9"/>
      <stop offset="1" stop-color="#A46EFA"/>
    </linearGradient>
  </defs>
  <rect width="64" height="64" rx="16" fill="url(#ph)"/>
  <path d="M14 28c0-9.4 9.2-16 18-16s18 6.6 18 16v14.5c0 2.4-1.6 4.5-4 5.1-2.2.5-4.3-.6-5.2-2.6l-1.4-3.1c-.7-1.5-2.2-2.5-3.9-2.5h-7c-1.7 0-3.2 1-3.9 2.5l-1.4 3.1c-.9 2-3 3.1-5.2 2.6-2.4-.6-4-2.7-4-5.1V28z" fill="white"/>
  <circle cx="27" cy="29" r="3.2" fill="#551BF9"/>
  <circle cx="37" cy="29" r="3.2" fill="#551BF9"/>
</svg>
