<svg xmlns="http://www.w3.org/2000/svg" viewBox="0 0 64 64" fill="none" role="img" aria-label="Solana">
  <defs>
    <linearGradient id="sol" x1="8" y1="10" x2="56" y2="54" gradientUnits="userSpaceOnUse">
      <stop stop-color="#00FFA3"/>
      <stop offset="0.5" stop-color="#03E1FF"/>
      <stop offset="1" stop-color="#DC1FFF"/>
    </linearGradient>
  </defs>
  <rect width="64" height="64" rx="16" fill="#0B0B0F"/>
  <path d="M16.5 42.2h28.2c.5 0 1 .2 1.3.6l3.5 3.7c.4.4.1 1.1-.5 1.1H20.8c-.5 0-1-.2-1.3-.6l-3.5-3.7c-.4-.4-.1-1.1.5-1.1zM48.9 28.4H20.7c-.5 0-1-.2-1.3-.6l-3.5-3.7c-.4-.4-.1-1.1.5-1.1h28.2c.5 0 1 .2 1.3.6l3.5 3.7c.4.4.1 1.1-.5 1.1zM16.5 21.8h28.2c.5 0 1 .2 1.3.6l3.5 3.7c.4.4.1 1.1-.5 1.1H20.8c-.5 0-1-.2-1.3-.6l-3.5-3.7c-.4-.4-.1-1.1.5-1.1z" fill="url(#sol)"/>
</svg>
